<mxfile host="app.diagrams.net" modified="2022-06-28T03:23:05.888Z" agent="5.0 (Macintosh; Intel Mac OS X 10_15_7) AppleWebKit/537.36 (KHTML, like Gecko) Chrome/103.0.0.0 Safari/537.36" etag="J2VnrT7qSy-0FyqCiFG5" version="20.0.3" type="github">
  <diagram id="CmjZ321qXh3RZILmZCXj" name="第 1 页">
    <mxGraphModel dx="1117" dy="624" grid="1" gridSize="10" guides="1" tooltips="1" connect="1" arrows="1" fold="1" page="1" pageScale="1" pageWidth="827" pageHeight="1169" math="0" shadow="0">
      <root>
        <mxCell id="0" />
        <mxCell id="1" parent="0" />
        <mxCell id="m7c0cfbOuJPa_niKVqYr-2" value="&lt;div style=&quot;text-align: justify;&quot;&gt;&lt;br&gt;&lt;/div&gt;" style="rounded=1;whiteSpace=wrap;html=1;align=center;strokeColor=#666666;fontColor=#333333;fillColor=#f5f5f5;" vertex="1" parent="1">
          <mxGeometry x="631" y="219" width="160" height="100" as="geometry" />
        </mxCell>
        <mxCell id="m7c0cfbOuJPa_niKVqYr-30" value="3. 在线服务部署" style="rounded=1;whiteSpace=wrap;html=1;fontColor=#FFFFFF;strokeColor=none;fillColor=#CD332A;" vertex="1" parent="m7c0cfbOuJPa_niKVqYr-2">
          <mxGeometry x="13" y="52" width="95" height="20" as="geometry" />
        </mxCell>
        <mxCell id="m7c0cfbOuJPa_niKVqYr-31" value="4.离线效果分析" style="rounded=1;whiteSpace=wrap;html=1;fontColor=#FFFFFF;strokeColor=none;fillColor=#CD332A;" vertex="1" parent="m7c0cfbOuJPa_niKVqYr-2">
          <mxGeometry x="50" y="76" width="95" height="20" as="geometry" />
        </mxCell>
        <mxCell id="m7c0cfbOuJPa_niKVqYr-1" value="" style="rounded=1;whiteSpace=wrap;html=1;fillColor=#f5f5f5;fontColor=#333333;strokeColor=#666666;" vertex="1" parent="1">
          <mxGeometry x="110" y="220" width="470" height="100" as="geometry" />
        </mxCell>
        <mxCell id="m7c0cfbOuJPa_niKVqYr-3" value="【服务+】智能营销" style="rounded=1;whiteSpace=wrap;html=1;fillColor=#CD332A;strokeColor=none;fontColor=#FFFFFF;" vertex="1" parent="1">
          <mxGeometry x="130" y="240" width="120" height="60" as="geometry" />
        </mxCell>
        <mxCell id="m7c0cfbOuJPa_niKVqYr-4" value="业务痛点" style="rounded=1;whiteSpace=wrap;html=1;fillColor=#CD332A;strokeColor=none;fontColor=#FFFFFF;" vertex="1" parent="1">
          <mxGeometry x="270" y="240" width="90" height="30" as="geometry" />
        </mxCell>
        <mxCell id="m7c0cfbOuJPa_niKVqYr-5" value="模型训练" style="rounded=1;whiteSpace=wrap;html=1;fillColor=#CD332A;strokeColor=none;fontColor=#FFFFFF;" vertex="1" parent="1">
          <mxGeometry x="369" y="240" width="90" height="30" as="geometry" />
        </mxCell>
        <mxCell id="m7c0cfbOuJPa_niKVqYr-6" value="AB方案" style="rounded=1;whiteSpace=wrap;html=1;fillColor=#CD332A;fontColor=#FFFFFF;strokeColor=none;" vertex="1" parent="1">
          <mxGeometry x="270" y="280" width="90" height="30" as="geometry" />
        </mxCell>
        <mxCell id="m7c0cfbOuJPa_niKVqYr-7" value="营销引擎" style="rounded=1;whiteSpace=wrap;html=1;fillColor=#CD332A;strokeColor=none;fontColor=#FFFFFF;" vertex="1" parent="1">
          <mxGeometry x="470" y="280" width="90" height="30" as="geometry" />
        </mxCell>
        <mxCell id="m7c0cfbOuJPa_niKVqYr-8" value="在线服务" style="rounded=1;whiteSpace=wrap;html=1;fillColor=#CD332A;strokeColor=none;fontColor=#FFFFFF;" vertex="1" parent="1">
          <mxGeometry x="470" y="240" width="90" height="30" as="geometry" />
        </mxCell>
        <mxCell id="m7c0cfbOuJPa_niKVqYr-9" value="结果归因" style="rounded=1;whiteSpace=wrap;html=1;fillColor=#CD332A;strokeColor=none;fontColor=#FFFFFF;" vertex="1" parent="1">
          <mxGeometry x="369" y="280" width="90" height="30" as="geometry" />
        </mxCell>
        <mxCell id="m7c0cfbOuJPa_niKVqYr-10" value="" style="rounded=1;whiteSpace=wrap;html=1;fillColor=#f5f5f5;fontColor=#333333;strokeColor=#666666;" vertex="1" parent="1">
          <mxGeometry x="111" y="343" width="470" height="100" as="geometry" />
        </mxCell>
        <mxCell id="m7c0cfbOuJPa_niKVqYr-11" value="" style="rounded=1;whiteSpace=wrap;html=1;align=center;fillColor=#f5f5f5;fontColor=#333333;strokeColor=#666666;" vertex="1" parent="1">
          <mxGeometry x="630" y="343" width="160" height="100" as="geometry" />
        </mxCell>
        <mxCell id="m7c0cfbOuJPa_niKVqYr-12" value="逆向二手单定价" style="rounded=1;whiteSpace=wrap;html=1;fillColor=#CD332A;fontColor=#FFFFFF;strokeColor=none;" vertex="1" parent="1">
          <mxGeometry x="131" y="363" width="120" height="60" as="geometry" />
        </mxCell>
        <mxCell id="m7c0cfbOuJPa_niKVqYr-13" value="业务痛点" style="rounded=1;whiteSpace=wrap;html=1;fillColor=#CD332A;strokeColor=none;fontColor=#FFFFFF;" vertex="1" parent="1">
          <mxGeometry x="271" y="363" width="90" height="30" as="geometry" />
        </mxCell>
        <mxCell id="m7c0cfbOuJPa_niKVqYr-14" value="数据分析" style="rounded=1;whiteSpace=wrap;html=1;fillColor=#CD332A;strokeColor=none;fontColor=#FFFFFF;" vertex="1" parent="1">
          <mxGeometry x="370" y="363" width="90" height="30" as="geometry" />
        </mxCell>
        <mxCell id="m7c0cfbOuJPa_niKVqYr-15" value="智能定价" style="rounded=1;whiteSpace=wrap;html=1;fillColor=#CD332A;strokeColor=none;fontColor=#FFFFFF;" vertex="1" parent="1">
          <mxGeometry x="271" y="403" width="90" height="30" as="geometry" />
        </mxCell>
        <mxCell id="m7c0cfbOuJPa_niKVqYr-16" value="定价引擎" style="rounded=1;whiteSpace=wrap;html=1;fillColor=#CD332A;strokeColor=none;fontColor=#FFFFFF;" vertex="1" parent="1">
          <mxGeometry x="471" y="403" width="90" height="30" as="geometry" />
        </mxCell>
        <mxCell id="m7c0cfbOuJPa_niKVqYr-17" value="AB方案" style="rounded=1;whiteSpace=wrap;html=1;fillColor=#CD332A;strokeColor=none;fontColor=#FFFFFF;" vertex="1" parent="1">
          <mxGeometry x="471" y="363" width="90" height="30" as="geometry" />
        </mxCell>
        <mxCell id="m7c0cfbOuJPa_niKVqYr-18" value="运筹模型" style="rounded=1;whiteSpace=wrap;html=1;fillColor=#CD332A;strokeColor=none;fontColor=#FFFFFF;" vertex="1" parent="1">
          <mxGeometry x="370" y="403" width="90" height="30" as="geometry" />
        </mxCell>
        <mxCell id="m7c0cfbOuJPa_niKVqYr-19" value="" style="shape=flexArrow;endArrow=classic;html=1;rounded=0;exitX=1;exitY=0.5;exitDx=0;exitDy=0;fillColor=#f5f5f5;strokeColor=#666666;" edge="1" parent="1">
          <mxGeometry width="50" height="50" relative="1" as="geometry">
            <mxPoint x="585" y="270" as="sourcePoint" />
            <mxPoint x="625" y="270" as="targetPoint" />
          </mxGeometry>
        </mxCell>
        <mxCell id="m7c0cfbOuJPa_niKVqYr-20" value="" style="shape=flexArrow;endArrow=classic;html=1;rounded=0;exitX=1;exitY=0.5;exitDx=0;exitDy=0;" edge="1" parent="1">
          <mxGeometry width="50" height="50" relative="1" as="geometry">
            <mxPoint x="587" y="394" as="sourcePoint" />
            <mxPoint x="627" y="394" as="targetPoint" />
          </mxGeometry>
        </mxCell>
        <mxCell id="m7c0cfbOuJPa_niKVqYr-22" value="" style="endArrow=none;dashed=1;html=1;rounded=1;dashPattern=1 4;" edge="1" parent="1">
          <mxGeometry width="50" height="50" relative="1" as="geometry">
            <mxPoint x="260" y="480" as="sourcePoint" />
            <mxPoint x="260" y="160" as="targetPoint" />
          </mxGeometry>
        </mxCell>
        <mxCell id="m7c0cfbOuJPa_niKVqYr-23" value="" style="endArrow=none;dashed=1;html=1;rounded=0;dashPattern=1 4;" edge="1" parent="1">
          <mxGeometry width="50" height="50" relative="1" as="geometry">
            <mxPoint x="102" y="480" as="sourcePoint" />
            <mxPoint x="102" y="160" as="targetPoint" />
          </mxGeometry>
        </mxCell>
        <mxCell id="m7c0cfbOuJPa_niKVqYr-24" value="" style="endArrow=none;dashed=1;html=1;rounded=0;dashPattern=1 4;" edge="1" parent="1">
          <mxGeometry width="50" height="50" relative="1" as="geometry">
            <mxPoint x="590" y="480" as="sourcePoint" />
            <mxPoint x="590" y="160" as="targetPoint" />
          </mxGeometry>
        </mxCell>
        <mxCell id="m7c0cfbOuJPa_niKVqYr-25" value="" style="endArrow=none;dashed=1;html=1;rounded=0;dashPattern=1 4;" edge="1" parent="1">
          <mxGeometry width="50" height="50" relative="1" as="geometry">
            <mxPoint x="810" y="480" as="sourcePoint" />
            <mxPoint x="810" y="160" as="targetPoint" />
          </mxGeometry>
        </mxCell>
        <mxCell id="m7c0cfbOuJPa_niKVqYr-28" value="1. 推荐框架设计" style="rounded=1;whiteSpace=wrap;html=1;fontColor=#FFFFFF;strokeColor=none;fillColor=#CD332A;" vertex="1" parent="1">
          <mxGeometry x="643" y="223" width="95" height="20" as="geometry" />
        </mxCell>
        <mxCell id="m7c0cfbOuJPa_niKVqYr-29" value="2.离线模型训练" style="rounded=1;whiteSpace=wrap;html=1;fontColor=#FFFFFF;strokeColor=none;fillColor=#CD332A;" vertex="1" parent="1">
          <mxGeometry x="681" y="247" width="95" height="20" as="geometry" />
        </mxCell>
        <mxCell id="m7c0cfbOuJPa_niKVqYr-32" value="3. AB方案设计" style="rounded=1;whiteSpace=wrap;html=1;fontColor=#FFFFFF;strokeColor=none;fillColor=#CD332A;" vertex="1" parent="1">
          <mxGeometry x="645.5" y="404" width="95" height="20" as="geometry" />
        </mxCell>
        <mxCell id="m7c0cfbOuJPa_niKVqYr-34" value="1. 多方数据协调" style="rounded=1;whiteSpace=wrap;html=1;fontColor=#FFFFFF;strokeColor=none;fillColor=#CD332A;" vertex="1" parent="1">
          <mxGeometry x="644.5" y="356" width="95" height="20" as="geometry" />
        </mxCell>
        <mxCell id="m7c0cfbOuJPa_niKVqYr-35" value="2.定价模型调研" style="rounded=1;whiteSpace=wrap;html=1;fontColor=#FFFFFF;strokeColor=none;fillColor=#CD332A;" vertex="1" parent="1">
          <mxGeometry x="682.5" y="380" width="95" height="20" as="geometry" />
        </mxCell>
      </root>
    </mxGraphModel>
  </diagram>
</mxfile>
